<svg width="12" height="13" fill="none" xmlns="http://www.w3.org/2000/svg"><path d="M4.148 2.773a.304.304 0 0 1-.296-.304c0-.164.132-.305.296-.305a.305.305 0 0 1 0 .61Zm3.297 0a.305.305 0 0 1 0-.609c.164 0 .297.14.297.305a.304.304 0 0 1-.297.304ZM1.102 4.211a.802.802 0 0 0-.805.797v3.36c0 .444.36.804.805.804.445 0 .796-.36.796-.805v-3.36a.8.8 0 0 0-.796-.796Zm8.28.148H2.212v5.204c0 .476.383.859.86.859h.577l.008 1.773a.802.802 0 1 0 1.602 0v-1.773h1.078v1.773a.804.804 0 1 0 1.61 0v-1.773h.585a.855.855 0 0 0 .852-.86V4.36ZM7.57 1.195 8.125.172a.114.114 0 0 0-.04-.156c-.054-.024-.124-.008-.155.046l-.563 1.032a3.87 3.87 0 0 0-1.57-.328 3.87 3.87 0 0 0-1.57.328L3.664.062c-.031-.054-.102-.07-.156-.046a.114.114 0 0 0-.04.156l.555 1.023c-1.101.563-1.843 1.64-1.843 2.883h7.226c0-1.242-.742-2.32-1.836-2.883Zm3.727 3.813a.797.797 0 0 0-.805-.797.795.795 0 0 0-.797.797v3.36a.802.802 0 1 0 1.602 0v-3.36Z" fill="#fff"/></svg>