<svg width="12" height="13" fill="none" xmlns="http://www.w3.org/2000/svg"><path d="M11.195 9.492c-.46-.14-.875-.469-1.234-.984a2.987 2.987 0 0 1-.54-1.742c0-.594.173-1.133.509-1.618.187-.273.484-.578.89-.921a3.97 3.97 0 0 0-.812-.782 2.852 2.852 0 0 0-1.664-.507c-.383 0-.836.093-1.352.265-.515.18-.89.266-1.117.266-.18 0-.54-.078-1.078-.235C4.25 3.078 3.797 3 3.414 3c-.898 0-1.633.375-2.219 1.125C.61 4.883.312 5.852.312 7.047c0 1.281.391 2.586 1.149 3.93C2.234 12.32 3.008 13 3.812 13c.258 0 .602-.086 1.032-.266.422-.171.797-.257 1.11-.257.32 0 .718.078 1.179.25.469.164.828.25 1.094.25.664 0 1.335-.508 2.007-1.532.454-.68.766-1.336.961-1.953ZM8.258.328c0-.055-.008-.101-.008-.156C8.242.125 8.227.07 8.21 0c-.905.21-1.562.594-1.952 1.156-.39.563-.594 1.235-.61 2.008.368-.031.633-.078.813-.133.281-.094.562-.281.844-.562.328-.328.57-.688.726-1.078.149-.383.227-.743.227-1.063Z" fill="#fff"/></svg>