<svg width="17" height="15" fill="none" xmlns="http://www.w3.org/2000/svg"><path d="M16.075 10.116a.89.89 0 0 0-.654-.27h-4.462l-1.308 1.308a1.822 1.822 0 0 1-1.307.539c-.5 0-.936-.18-1.308-.539L5.738 9.846H1.267a.891.891 0 0 0-.654.27.89.89 0 0 0-.27.654v3.076c0 .257.09.475.27.654.18.18.397.27.654.27H15.42a.89.89 0 0 0 .654-.27.89.89 0 0 0 .269-.654V10.77a.89.89 0 0 0-.27-.654Zm-3.606 3.24a.592.592 0 0 1-.433.183.592.592 0 0 1-.433-.183.591.591 0 0 1-.182-.433c0-.166.06-.31.182-.432a.591.591 0 0 1 .433-.183c.167 0 .31.06.433.183a.591.591 0 0 1 .183.432c0 .167-.061.311-.183.433Zm2.461 0a.591.591 0 0 1-.432.183.592.592 0 0 1-.433-.183.591.591 0 0 1-.183-.433c0-.166.061-.31.183-.432a.591.591 0 0 1 .433-.183c.166 0 .31.06.432.183a.591.591 0 0 1 .183.432c0 .167-.06.311-.183.433Z" fill="#fff"/><path d="M7.911 10.279c.116.122.26.183.433.183s.317-.061.432-.183l4.308-4.308c.199-.186.244-.41.135-.673a.575.575 0 0 0-.567-.375H10.19V.615a.592.592 0 0 0-.183-.432A.592.592 0 0 0 9.575 0H7.113c-.167 0-.311.06-.433.183a.591.591 0 0 0-.182.432v4.308H4.036a.575.575 0 0 0-.567.375c-.11.263-.064.487.134.673l4.308 4.308Z" fill="#fff"/></svg>