<svg width="21" height="17" fill="none" xmlns="http://www.w3.org/2000/svg"><path fill-rule="evenodd" clip-rule="evenodd" d="M4.293.526a.53.53 0 0 1 .16-.372A.54.54 0 0 1 4.83 0h11.338c.142 0 .277.055.378.154.1.098.157.232.158.372V3.42l3.935 1.047c.264.068.417.358.34.64l-2.367 8.743v2.619a.529.529 0 0 1-.158.376.54.54 0 0 1-.38.156H2.923a.54.54 0 0 1-.38-.156.53.53 0 0 1-.158-.376v-4.571l-2.35-6.39c-.101-.274.026-.575.282-.667l3.976-1.432V.526Zm8.162 1.762 3.515.935V.726H5.028v2.417L11.398.85c.257-.093.549.057.65.332l.407 1.106Zm6.002 2.47a.54.54 0 0 0-.38-.155h-4.77l-.545-1.482 7.458 1.985-1.607 5.931.002-5.902a.53.53 0 0 0-.158-.376ZM.792 5.442l1.593 4.33V5.135c0-.108.034-.214.095-.302l-1.688.608Zm10.633-3.829 1.1 2.991H3.12l8.305-2.99Zm4.387 7.46a.241.241 0 0 1-.091.018h-4.535V7.91h4.535a.24.24 0 0 1 .168.069c.045.044.07.104.07.167v.708a.234.234 0 0 1-.147.218Zm.077 4.435a.24.24 0 0 1-.168.069h-4.535v-1.18h4.535a.24.24 0 0 1 .168.068c.045.045.07.105.07.167v.71a.235.235 0 0 1-.07.166Zm.716-2.244a.24.24 0 0 1-.169.07h-5.25v-1.181h5.25a.24.24 0 0 1 .17.07c.044.043.07.104.07.166v.708a.235.235 0 0 1-.07.167Zm-6.734-.456c0-.18-.016-.359-.045-.536H7.129v1.064h1.544c-.127.649-.703 1.119-1.544 1.119-.937 0-1.695-.785-1.695-1.712 0-.927.76-1.712 1.695-1.712.409-.006.803.146 1.099.425l.817-.809A2.767 2.767 0 0 0 7.13 7.91a2.89 2.89 0 0 0-2.047.818 2.832 2.832 0 0 0-.851 2.015 2.807 2.807 0 0 0 .85 2.015 2.866 2.866 0 0 0 2.048.818c1.655 0 2.742-1.15 2.742-2.769Z" fill="#fff"/></svg>