<svg width="20" height="21" fill="none" xmlns="http://www.w3.org/2000/svg"><path d="M16.73 3.98a4.336 4.336 0 0 0-3.2-1.37c-.923 0-1.769.287-2.514.853A5.098 5.098 0 0 0 10 4.507c-.3-.408-.64-.758-1.016-1.044a4.068 4.068 0 0 0-2.514-.854 4.336 4.336 0 0 0-3.2 1.37C2.45 4.853 2 6.046 2 7.34c0 1.33.504 2.549 1.587 3.833.968 1.15 2.36 2.316 3.972 3.667.55.462 1.175.985 1.822 1.542a.948.948 0 0 0 1.237 0c.648-.557 1.272-1.08 1.823-1.542 1.612-1.35 3.004-2.517 3.972-3.667C17.496 9.888 18 8.67 18 7.338c0-1.292-.45-2.485-1.27-3.359Z" fill="#fff"/></svg>