<svg width="14" height="14" fill="none" xmlns="http://www.w3.org/2000/svg"><path d="M4.1.049c-.744.035-1.252.154-1.697.329-.46.179-.85.42-1.238.81-.389.389-.628.779-.806 1.24-.172.445-.289.955-.322 1.7-.033.745-.04.984-.036 2.885.003 1.901.012 2.14.048 2.886.036.745.154 1.254.329 1.698.18.46.42.85.81 1.239.389.388.779.626 1.241.805.445.172.954.289 1.7.322.745.032.984.04 2.885.036 1.9-.004 2.14-.012 2.886-.047.747-.036 1.252-.155 1.697-.329.46-.18.85-.42 1.239-.81.388-.39.627-.78.804-1.241.173-.445.29-.954.322-1.7.033-.746.04-.985.037-2.885-.004-1.901-.012-2.14-.047-2.886-.036-.746-.154-1.253-.329-1.698-.18-.46-.42-.85-.81-1.239a3.417 3.417 0 0 0-1.24-.804c-.446-.173-.955-.29-1.7-.322C9.128.005 8.888-.002 6.987 0 5.086.004 4.847.013 4.1.049Zm.083 12.654c-.683-.03-1.053-.143-1.3-.238a2.18 2.18 0 0 1-.806-.522 2.157 2.157 0 0 1-.525-.804c-.096-.247-.212-.617-.244-1.3-.035-.737-.042-.958-.046-2.827-.004-1.87.003-2.09.036-2.828.029-.682.143-1.053.238-1.3.126-.327.277-.56.522-.806a2.16 2.16 0 0 1 .804-.525c.246-.096.616-.211 1.299-.243.738-.035.96-.042 2.828-.047 1.868-.004 2.09.003 2.829.036.682.03 1.053.143 1.3.238.326.126.56.277.805.522.246.245.398.477.525.804.097.246.211.616.244 1.299.035.738.043.96.046 2.828.004 1.868-.003 2.09-.035 2.828-.03.682-.143 1.053-.238 1.3a2.17 2.17 0 0 1-.523.806 2.162 2.162 0 0 1-.804.525c-.246.096-.617.211-1.298.244-.739.034-.96.042-2.83.046-1.868.004-2.089-.004-2.827-.036M9.889 3.26a.84.84 0 1 0 1.68-.003.84.84 0 0 0-1.68.003ZM3.406 7.007a3.594 3.594 0 1 0 7.188-.014 3.594 3.594 0 0 0-7.188.014Zm1.26-.003a2.333 2.333 0 1 1 4.667-.009 2.333 2.333 0 0 1-4.666.01Z" fill="#fff"/></svg>