<svg width="8" height="14" fill="none" xmlns="http://www.w3.org/2000/svg"><path d="M4.833 12.2a.826.826 0 0 1-.833.813.826.826 0 0 1-.833-.813c0-.447.375-.813.833-.813.458 0 .833.366.833.813ZM7 10.575a.339.339 0 0 1-.333.325H1.333A.339.339 0 0 1 1 10.575v-7.15c0-.173.156-.325.333-.325h5.334c.177 0 .333.152.333.325v7.15ZM5 1.963a.163.163 0 0 1-.167.162H3.167a.163.163 0 1 1 0-.325h1.666c.094 0 .167.071.167.162ZM8 1.8C8 1.09 7.396.5 6.667.5H1.333C.604.5 0 1.09 0 1.8v10.4c0 .71.604 1.3 1.333 1.3h5.334C7.396 13.5 8 12.91 8 12.2V1.8Z" fill="#fff"/></svg>