<svg width="20" height="21" fill="none" xmlns="http://www.w3.org/2000/svg"><g clip-path="url(#a)"><path d="M9.969.61C5.96.61 2 3.28 2 7.604c0 2.75 1.547 4.313 2.484 4.313.387 0 .61-1.078.61-1.383 0-.363-.926-1.137-.926-2.648 0-3.14 2.39-5.367 5.484-5.367 2.66 0 4.63 1.511 4.63 4.289 0 2.074-.833 5.964-3.528 5.964-.973 0-1.805-.703-1.805-1.71 0-1.477 1.031-2.907 1.031-4.43 0-2.586-3.668-2.117-3.668 1.008 0 .656.083 1.382.375 1.98-.539 2.32-1.64 5.777-1.64 8.168 0 .738.105 1.465.176 2.203.132.149.066.133.27.059C7.46 17.356 7.39 16.828 8.28 13.3c.48.914 1.723 1.406 2.707 1.406 4.149 0 6.012-4.043 6.012-7.687C17 3.14 13.648.61 9.969.61Z" fill="#fff"/></g><defs><clipPath id="a"><path fill="#fff" transform="translate(0 .61)" d="M0 0h20v20H0z"/></clipPath></defs></svg>