<svg width="20" height="21" fill="none" xmlns="http://www.w3.org/2000/svg"><path d="M17.465 8.559a2.08 2.08 0 0 0-1.48.62c-1.395-.964-3.274-1.585-5.356-1.652l1.082-4.875 3.445.774c0 .844.688 1.531 1.531 1.531.86 0 1.551-.707 1.551-1.55 0-.845-.687-1.552-1.55-1.552-.602 0-1.122.364-1.38.86l-3.804-.844c-.192-.05-.38.086-.43.277L9.887 7.523C7.82 7.61 5.96 8.23 4.562 9.195a2.076 2.076 0 0 0-1.5-.636c-2.171 0-2.882 2.914-.894 3.91-.07.308-.102.636-.102.965 0 3.273 3.688 5.925 8.215 5.925 4.547 0 8.234-2.652 8.234-5.925 0-.329-.035-.672-.12-.98 1.949-1 1.23-3.895-.93-3.895ZM5.32 12.676c0-.86.688-1.551 1.551-1.551.844 0 1.531.688 1.531 1.55 0 .845-.687 1.532-1.531 1.532a1.538 1.538 0 0 1-1.55-1.531Zm8.371 3.652c-1.422 1.422-5.433 1.422-6.855 0-.156-.137-.156-.379 0-.535a.375.375 0 0 1 .515 0c1.086 1.113 4.688 1.133 5.82 0a.375.375 0 0 1 .516 0c.16.156.16.398.004.535Zm-.031-2.117a1.534 1.534 0 0 1-1.531-1.531 1.54 1.54 0 1 1 1.531 1.53Z" fill="#fff"/></svg>