<svg aria-hidden="true" 
style="position:absolute;width:0;height:0;overflow:hidden" 
xmlns="http://www.w3.org/2000/svg">
<defs>
<symbol id="icon-android" viewBox="0 0 30 32">
<path 
  d="M10.21 6.826a.749.749 0 0 1-.729-.748c0-.404.325-.751.729-.751a.75.75 0 1 1 0 1.502zm8.116 0a.751.751 0 0 1-.002-1.499h.002c.404 0 .731.345.731.751a.748.748 0 0 1-.73.748h-.001zm-15.613 3.54h-.007a1.974 1.974 0 0 0-1.974 1.961v8.271c0 1.093.886 1.979 1.982 1.979s1.959-.886 1.959-1.982v-8.271a1.97 1.97 0 0 0-1.959-1.959h-.001zm20.381.364H5.445v12.81a2.11 2.11 0 0 0 2.117 2.114h1.42l.02 4.364C9 30.047 9 30.082 9 30.117a1.974 1.974 0 1 0 3.945-.103v.005-4.364h2.654v4.364a1.982 1.982 0 0 0 3.964 0v-4.364h1.44A2.105 2.105 0 0 0 23.1 23.55v-.013.001-12.805zm-4.46-7.788L20 .424a.283.283 0 0 0-.097-.384l-.001-.001c-.133-.059-.305-.02-.382.113l-1.386 2.54a9.378 9.378 0 0 0-3.838-.807h-.028.001-.026a9.48 9.48 0 0 0-3.898.832l.06-.024L9.019.153C8.943.02 8.768-.019 8.635.04a.28.28 0 0 0-.097.385L8.537.424l1.366 2.518c-2.71 1.386-4.537 4.037-4.537 7.097h17.787c0-3.057-1.826-5.711-4.519-7.097zm9.174 9.385a1.962 1.962 0 0 0-1.962-1.962h-.021.001-.005a1.957 1.957 0 0 0-1.957 1.957V20.598c-.002.029-.002.064-.002.099a1.974 1.974 0 1 0 3.945-.103v.005-8.271z"/>
  </symbol>
  <symbol id="icon-apple" viewBox="0 0 30 32">
  <path 
   d="M27.557 23.365c-1.132-.345-2.154-1.154-3.038-2.422a7.29 7.29 0 0 1-1.33-4.217v-.075.004c0-1.462.426-2.789 1.253-3.983.46-.672 1.191-1.423 2.191-2.267A9.84 9.84 0 0 0 24.662 8.5l-.028-.02a6.966 6.966 0 0 0-3.997-1.249l-.105.001h.005c-.943 0-2.058.229-3.328.652-1.268.443-2.191.655-2.75.655-.443 0-1.329-.192-2.654-.578-1.346-.384-2.462-.576-3.404-.576-2.21 0-4.02.923-5.462 2.769C1.499 12.02.765 14.405.765 17.347c0 3.153.962 6.366 2.828 9.674 1.903 3.306 3.808 4.98 5.787 4.98.635 0 1.482-.212 2.54-.655 1.039-.421 1.962-.633 2.732-.633.788 0 1.767.192 2.902.615 1.154.404 2.038.615 2.693.615 1.634 0 3.286-1.25 4.94-3.771 1.118-1.674 1.886-3.289 2.366-4.807zM20.327.807c0-.135-.02-.249-.02-.384-.02-.116-.057-.251-.098-.423-2.228.517-3.845 1.462-4.805 2.846-.96 1.386-1.462 3.04-1.502 4.943.906-.076 1.558-.192 2.001-.327.692-.231 1.383-.692 2.078-1.383.807-.807 1.403-1.694 1.787-2.654.367-.943.559-1.829.559-2.617z"/>
   </symbol>
   <symbol id="icon-clock" viewBox="0 0 35 32">
   <path  d="M20 8.667A.66.66 0 0 0 19.333 8H18a.66.66 0 0 0-.667.667V16h-4.667a.66.66 0 0 0-.667.667V18a.66.66 0 0 0 .667.667h6.667A.66.66 0 0 0 20 18V8.667zM28.667 16c-.006 6.257-5.077 11.327-11.333 11.333h-.001C11.076 27.327 6.006 22.256 6 16v-.001c.006-6.257 5.077-11.327 11.333-11.333h.001c6.257.006 11.327 5.077 11.333 11.333V16zm4.666 0c0-8.835-7.168-16-16-16-8.835 0-16 7.168-16 16 0 8.835 7.168 16 16 16 8.835 0 16-7.168 16-16z"/>
   </symbol>
   <symbol id="icon-download" viewBox="0 0 36 32">
   <path   d="M34.293 21.581a1.89 1.89 0 0 0-1.362-.576h-.035.002-9.519l-2.79 2.79a3.877 3.877 0 0 1-2.76 1.15h-.03.002c-1.067 0-1.997-.384-2.79-1.15l-2.769-2.79h-9.57c-.535 0-1.018.221-1.363.576a1.89 1.89 0 0 0-.576 1.362v.035-.002 6.562c0 .548.192 1.013.576 1.395.384.384.847.576 1.395.576H32.93c.534 0 1.017-.221 1.362-.576.354-.345.574-.827.574-1.36v-.037.002V22.943c0-.534-.221-1.017-.576-1.362zm-7.692 6.912c-.23.241-.554.39-.913.39h-.011.001-.011c-.359 0-.683-.15-.913-.39a1.26 1.26 0 0 1-.388-.91v-.014.001c0-.354.128-.661.388-.922.23-.241.554-.39.912-.39h.012-.001c.356 0 .661.128.924.39.241.23.39.554.39.912v.01c0 .356-.13.663-.39.924zm5.25 0c-.23.241-.554.39-.912.39H30.918c-.359 0-.683-.15-.913-.39a1.257 1.257 0 0 1-.39-.912v-.012.001c0-.354.13-.661.39-.922.23-.241.554-.39.912-.39h.012-.001c.354 0 .661.128.922.39.241.23.39.554.39.912v.01c0 .356-.128.663-.39.924z"/>
   <path   d="M16.877 21.929c.247.26.555.39.924.39s.676-.13.922-.39l9.19-9.19c.425-.397.521-.875.288-1.436a1.229 1.229 0 0 0-1.151-.801l-.062.002h.003-5.252V1.306c0-.359-.15-.683-.39-.913a1.257 1.257 0 0 0-.913-.39h-5.261c-.356 0-.663.128-.924.39a1.26 1.26 0 0 0-.388.91v.012-.001 9.19H8.611l-.059-.001c-.525 0-.973.33-1.148.793l-.003.008c-.235.561-.137 1.039.286 1.436l9.19 9.19z"/>
   </symbol>
   <symbol id="icon-facebook" viewBox="0 0 16 32">
   <path   d="M15.754 1.05a33.535 33.535 0 0 0-3.812-.211l-.226.001h.012c-3.99 0-6.726 2.438-6.726 6.904v3.848H.5v5.226H5v13.4h5.404v-13.4h4.484l.688-5.226h-5.172V8.254c0-1.5.406-2.542 2.578-2.542h2.772v-4.66z"/>
   </symbol>
   <symbol id="icon-filter" viewBox="0 0 35 32">
   <path   d="M33.658.887A1.473 1.473 0 0 0 32.321 0H3.229a1.472 1.472 0 0 0-1.34.878l-.004.009a1.43 1.43 0 0 0 .32 1.591l11.203 11.203v11.046c0 .387.16.751.433 1.024l5.818 5.818c.249.265.601.431.992.431h.03-.002c.207-.006.402-.048.581-.12l-.011.004c.521-.231.88-.742.884-1.338V13.681L33.339 2.478a1.424 1.424 0 0 0 .316-1.6l.004.009z"/>
   </symbol>
   <symbol id="icon-google-news" viewBox="0 0 40 32">
   <path  d="M8.081.99v5.427L.597 9.113c-.482.173-.721.74-.531 1.256L4.49 22.397v8.604a1.012 1.012 0 0 0 1.012 1.002H34.024c.279 0 .531-.112.715-.294a.99.99 0 0 0 .297-.708v-4.93l4.456-16.457c.145-.531-.143-1.077-.64-1.205l-7.407-1.971V.99a.99.99 0 0 0-.297-.7 1.015 1.015 0 0 0-.712-.29H9.094c-.276 0-.527.111-.71.29a.996.996 0 0 0-.301.7zm15.364 3.317-.766-2.082c-.19-.518-.74-.8-1.224-.625L9.464 5.916v-4.55h20.597v4.7l-6.616-1.76zm11.298 4.649a1.014 1.014 0 0 0-.713-.292h-8.982l-1.026-2.79L38.061 9.61l-3.025 11.164.004-11.11a.997.997 0 0 0-.297-.708zM1.491 10.242l3.177-1.144a1.001 1.001 0 0 0-.179.568v8.728L1.49 10.243zm20.015-7.206 2.071 5.63H5.873l15.633-5.628zm8.258 14.043a.453.453 0 0 1-.171.034h-8.536V14.89h8.536a.45.45 0 0 1 .316.13.438.438 0 0 1 .132.314V16.668a.441.441 0 0 1-.274.408l-.003.001zm.145 8.348a.45.45 0 0 1-.316.13h-8.537v-2.221H29.593a.445.445 0 0 1 .447.442v1.336a.44.44 0 0 1-.132.312zm1.347-4.224a.452.452 0 0 1-.318.132h-9.882v-2.223h9.883a.45.45 0 0 1 .319.132.442.442 0 0 1 .132.312v1.333a.44.44 0 0 1-.132.314zm-12.673-.86c0 3.048-2.046 5.212-5.161 5.212h.004l-.085.001a5.381 5.381 0 0 1-3.775-1.54l-.001-.001a5.27 5.27 0 0 1-1.599-3.787v-.006a5.317 5.317 0 0 1 1.602-3.792l-.001.001a5.42 5.42 0 0 1 3.794-1.541h.06-.003.068c1.368 0 2.614.528 3.54 1.388l-1.538 1.523a2.952 2.952 0 0 0-2.069-.8c-1.76 0-3.191 1.478-3.191 3.223s1.427 3.223 3.191 3.223c1.583 0 2.667-.885 2.906-2.106h-2.906v-2.003h5.077c.055.333.085.67.085 1.009z"/>
   </symbol>
   <symbol id="icon-instagram" viewBox="0 0 32 32">
   <path   d="M9.371.112C7.67.192 6.509.464 5.492.864a7.816 7.816 0 0 0-2.83 1.851A7.803 7.803 0 0 0 .82 5.549C.427 6.566.159 7.732.084 9.435s-.091 2.249-.082 6.594c.007 4.345.027 4.891.11 6.597.082 1.703.352 2.866.752 3.881a7.866 7.866 0 0 0 1.851 2.832 7.835 7.835 0 0 0 2.837 1.84c1.017.393 2.181.661 3.886.736 1.703.073 2.249.091 6.594.082 4.343-.009 4.891-.027 6.597-.107 1.707-.082 2.862-.354 3.879-.752a7.866 7.866 0 0 0 2.832-1.851 7.81 7.81 0 0 0 1.838-2.837c.395-1.017.663-2.181.736-3.886.075-1.705.091-2.251.085-6.594-.009-4.345-.027-4.891-.107-6.597-.082-1.705-.352-2.864-.752-3.881a7.866 7.866 0 0 0-1.851-2.832A7.82 7.82 0 0 0 26.508.84l-.054-.018C25.435.427 24.271.159 22.568.086c-1.703-.075-2.251-.091-6.597-.087-4.345.009-4.891.03-6.599.112zm.19 28.923c-1.561-.069-2.407-.327-2.971-.544a5.006 5.006 0 0 1-1.841-1.192l-.001-.001a4.948 4.948 0 0 1-1.189-1.804l-.011-.034c-.219-.565-.485-1.41-.558-2.971-.08-1.685-.096-2.19-.105-6.462-.009-4.274.007-4.777.082-6.464.066-1.559.327-2.407.544-2.971A4.943 4.943 0 0 1 4.704 4.75a4.948 4.948 0 0 1 1.804-1.189l.034-.011c.562-.219 1.408-.482 2.969-.555 1.687-.08 2.194-.096 6.464-.107 4.27-.009 4.777.007 6.466.082 1.559.069 2.407.327 2.971.544.745.288 1.28.633 1.84 1.193.562.56.91 1.09 1.2 1.838.222.562.482 1.408.558 2.969.08 1.687.098 2.194.105 6.464.009 4.27-.007 4.777-.08 6.464-.069 1.559-.327 2.407-.544 2.971a4.977 4.977 0 0 1-1.194 1.841l-.001.001a4.948 4.948 0 0 1-1.804 1.189l-.034.011c-.562.219-1.41.482-2.967.558-1.689.078-2.194.096-6.469.105-4.27.009-4.775-.009-6.462-.082zM22.603 7.451a1.92 1.92 0 0 0 3.84-.003v-.004a1.92 1.92 0 0 0-3.84.003v.004zM7.785 16.016A8.215 8.215 0 0 0 24.215 16v-.017.001A8.215 8.215 0 0 0 7.785 16v.017-.001zm2.88-.007v-.01a5.334 5.334 0 0 1 10.668-.011V16a5.333 5.333 0 0 1-10.666.012v-.001z"/>
   </symbol>
   <symbol id="icon-mobile" viewBox="0 0 18 32">
   <path  d="M11.047 27.886a1.888 1.888 0 0 1-1.888 1.858h-.017.001-.016a1.888 1.888 0 0 1-1.888-1.857v-.002c0-1.022.857-1.858 1.904-1.858s1.904.837 1.904 1.858zM16 24.171a.775.775 0 0 1-.76.743H3.047a.774.774 0 0 1-.761-.741V7.828c0-.395.357-.743.761-.743h12.192c.405 0 .761.347.761.743v16.343zM11.429 4.487a.372.372 0 0 1-.373.37H7.238l-.029.001a.373.373 0 1 1 .03-.745h-.001 3.808c.215 0 .382.162.382.37zm6.857-.373c0-1.623-1.381-2.971-3.047-2.971H3.047C1.381 1.143 0 2.492 0 4.114v23.771c0 1.623 1.381 2.971 3.047 2.971h12.192c1.666 0 3.047-1.349 3.047-2.971V4.114z"/>
   </symbol>
   <symbol id="icon-pinterest-side" viewBox="0 0 30 32">
   <path   d="M15.191.93C9.082.93 3.048 4.999 3.048 11.588c0 4.19 2.357 6.572 3.785 6.572.59 0 .93-1.643.93-2.107 0-.553-1.411-1.733-1.411-4.035 0-4.785 3.642-8.178 8.357-8.178 4.053 0 7.055 2.302 7.055 6.536 0 3.16-1.269 9.088-5.376 9.088-1.483 0-2.75-1.071-2.75-2.606 0-2.251 1.571-4.43 1.571-6.75 0-3.941-5.589-3.226-5.589 1.536 0 1 .126 2.106.571 3.017-.821 3.535-2.499 8.803-2.499 12.446 0 1.125.16 2.232.268 3.357.201.227.101.203.411.09 2.997-4.105 2.891-4.91 4.247-10.286.731 1.393 2.626 2.142 4.125 2.142 6.322 0 9.161-6.161 9.161-11.714C25.906 4.785 20.798.93 15.192.93z"/>
   </symbol>
   <symbol id="icon-reddit-alien-side" viewBox="0 0 30 32">
   <path   d="M26.613 13.042a3.162 3.162 0 0 0-2.255.944c-2.126-1.469-4.989-2.415-8.162-2.517l1.649-7.429 5.25 1.179a2.337 2.337 0 0 0 2.333 2.333 2.372 2.372 0 0 0 2.363-2.362 2.368 2.368 0 0 0-2.362-2.365c-.917 0-1.71.555-2.103 1.31l-5.797-1.286c-.293-.076-.579.131-.655.422l-1.809 8.19c-3.15.133-5.984 1.077-8.114 2.548a3.154 3.154 0 0 0-2.279-.969h-.007c-3.308 0-4.392 4.44-1.362 5.958a6.655 6.655 0 0 0-.155 1.47c0 4.987 5.62 9.029 12.518 9.029 6.929 0 12.547-4.041 12.547-9.029 0-.501-.053-1.024-.183-1.493 2.97-1.524 1.874-5.935-1.417-5.935zM8.107 19.316a2.354 2.354 0 0 1 2.363-2.363 2.343 2.343 0 0 1 2.333 2.362 2.336 2.336 0 0 1-2.333 2.334h-.018a2.343 2.343 0 0 1-2.344-2.332v-.001zm12.755 5.565c-2.167 2.167-8.279 2.167-10.446 0-.238-.209-.238-.578 0-.815a.57.57 0 0 1 .785 0c1.655 1.696 7.144 1.726 8.869 0a.57.57 0 0 1 .786 0c.244.238.244.606.006.815zm-.047-3.226a2.339 2.339 0 0 1-2.333-2.333v-.015a2.347 2.347 0 1 1 2.347 2.347h-.014.001z"/>
   </symbol>
   <symbol id="icon-save" viewBox="0 0 30 32">
   <path  d="M25.493 6.065a6.591 6.591 0 0 0-4.82-2.088h-.059.003a6.202 6.202 0 0 0-3.831 1.3 7.823 7.823 0 0 0-1.533 1.569l-.015.022a7.754 7.754 0 0 0-1.548-1.591 6.155 6.155 0 0 0-3.8-1.301h-.032.002-.056A6.591 6.591 0 0 0 4.987 6.06l-.003.003c-1.25 1.332-1.935 3.15-1.935 5.122 0 2.027.768 3.884 2.418 5.841 1.475 1.752 3.596 3.529 6.053 5.588.838.704 1.79 1.501 2.776 2.35.251.217.581.35.942.35s.691-.132.944-.351l-.002.002c.987-.849 1.938-1.646 2.778-2.35 2.456-2.057 4.578-3.835 6.053-5.588 1.65-1.958 2.418-3.814 2.418-5.844 0-1.969-.686-3.787-1.935-5.118z"/>
   </symbol>
   <symbol id="icon-search" viewBox="0 0 32 32">
   <path   d="M22.302 13.715c0 4.643-3.778 8.421-8.421 8.421S5.46 18.358 5.46 13.715s3.778-8.421 8.421-8.421 8.421 3.778 8.421 8.421zm9.624 15.639c0-.64-.263-1.26-.696-1.693l-6.447-6.447a13.093 13.093 0 0 0 2.333-7.494v-.011c0-7.306-5.922-13.228-13.228-13.228h-.012C6.57.481.648 6.403.648 13.709v.01c0 7.306 5.922 13.228 13.228 13.228h.005c2.669 0 5.3-.808 7.5-2.331l6.447 6.429a2.35 2.35 0 0 0 1.69.714h.002a2.423 2.423 0 0 0 2.405-2.405z"/>
   </symbol>
   <symbol id="icon-twitter" viewBox="0 0 40 32">
   <path   d="M38.285 3.883c-1.365.587-2.848 1.013-4.379 1.176A7.624 7.624 0 0 0 37.232.926l.015-.054a14.692 14.692 0 0 1-4.732 1.819l-.095.016a7.565 7.565 0 0 0-5.536-2.4h-.017.001-.003a7.6 7.6 0 0 0-7.6 7.6c0 .589.069 1.179.187 1.744A21.6 21.6 0 0 1 3.805 1.732l-.031-.039a7.466 7.466 0 0 0-1.035 3.814v.025-.001.004a7.594 7.594 0 0 0 3.362 6.31l.027.017a7.623 7.623 0 0 1-3.475-.985l.038.02v.096a7.603 7.603 0 0 0 6.096 7.461c-.6.162-1.288.257-1.999.259h-.001c-.493 0-.965-.048-1.435-.117 1.005 3.042 3.795 5.209 7.099 5.272h.007a15.129 15.129 0 0 1-9.4 3.248h-.042.002-.121c-.604 0-1.2-.034-1.786-.1l.072.007c3.284 2.14 7.303 3.413 11.62 3.413h.06-.003c13.981 0 21.632-11.581 21.632-21.632 0-.331 0-.659-.027-.987a16.486 16.486 0 0 0 3.778-3.879l.035-.054z"/>
   </symbol>
   <symbol id="icon-telegram-side" viewBox="0 0 30 32">
   <path   d="M2.804 15.064c-1.513.378 3.596-1.91 8.726-4.157l6.795-2.654c7.387-3.133 8.923-3.682 9.92-3.682.207 0 .704.043 1.036.296.25.213.332.509.373.719.043.213.084.678.043 1.059-.416 4.273-2.118 14.725-3.031 19.505-.373 2.031-1.12 2.708-1.826 2.793-1.536.126-2.738-1.058-4.233-2.031-2.324-1.565-3.653-2.539-5.935-4.062-2.615-1.777-.913-2.749.582-4.315.373-.422 7.221-6.728 7.345-7.32 0-.084.043-.338-.123-.465-.168-.126-.373-.085-.539-.043-.25.043-3.985 2.581-11.247 7.573-1.079.762-2.034 1.102-2.906 1.102-.954 0-2.781-.55-4.149-1.016C1.974 17.817.647 17.52.77 16.589c.125-.507.789-1.016 2.034-1.524z"/>
   </symbol>
   <symbol id="icon-user" viewBox="0 0 32 32">
   <path   d="M28.308 24.98c0-5.056-1.25-10.905-6.289-10.905-1.548 1.523-3.674 2.463-6.018 2.463s-4.47-.94-6.02-2.464l.001.001c-5.039 0-6.289 5.849-6.289 10.905 0 2.809 1.846 5.095 4.096 5.095h16.423c2.25 0 4.096-2.287 4.096-5.095zM23.385 7.921a7.387 7.387 0 0 0-14.774.002v.003c0 4.08 3.307 7.387 7.387 7.387s7.387-3.307 7.387-7.387z"/>
   </symbol>
   <symbol id="icon-wifi-side" viewBox="0 0 32 32">
   <path   d="M0 0v5.817c14.446 0 26.181 11.739 26.181 26.183H32C32 14.327 17.673 0 0 0zm0 10.183V16c8.83 0 16 7.17 16 16h5.817c0-12.046-9.771-21.817-21.817-21.817zm4.366 13.09a4.366 4.366 0 1 0 .007 8.728h-.007a4.366 4.366 0 0 0 .007-8.726h-.007z"/>
   </symbol>
   <symbol id="icon-youtube" viewBox="0 0 48 32">
   <path   d="M40.56.955C37.008 0 22.768 0 22.768 0S8.528 0 4.979.955l-.04.01A5.737 5.737 0 0 0 .953 4.998C.001 8.561.001 16.001.001 16.001s0 7.44.952 11.003l.009.04a5.74 5.74 0 0 0 4.017 4.003c3.549.955 17.789.955 17.789.955s14.245 0 17.792-.955l.04-.01a5.737 5.737 0 0 0 3.986-4.033c.952-3.563.952-11.003.952-11.003s0-7.44-.952-11.003l-.009-.04A5.74 5.74 0 0 0 40.56.955zM30.008 16l-11.901 6.752V9.248L30.008 16z"/>
   </symbol>
   <symbol id="icon-heart-side" viewBox="0 0 30 32">
<path d="M25.493 6.065c-1.209-1.287-2.921-2.088-4.82-2.088-0.020 0-0.040 0-0.059 0l0.003-0c-1.406 0-2.696 0.437-3.831 1.3-0.592 0.458-1.103 0.982-1.533 1.569l-0.015 0.022c-0.457-0.622-0.975-1.155-1.548-1.591-1.038-0.812-2.362-1.301-3.8-1.301-0.011 0-0.022 0-0.032 0h0.002c-0.017-0-0.037-0-0.056-0-1.899 0-3.611 0.801-4.817 2.084l-0.003 0.003c-1.25 1.332-1.935 3.15-1.935 5.122 0 2.027 0.768 3.884 2.418 5.841 1.475 1.752 3.596 3.529 6.053 5.588 0.838 0.704 1.79 1.501 2.776 2.35 0.251 0.217 0.581 0.35 0.942 0.35s0.691-0.132 0.944-0.351l-0.002 0.002c0.987-0.849 1.938-1.646 2.778-2.35 2.456-2.057 4.578-3.835 6.053-5.588 1.65-1.958 2.418-3.814 2.418-5.844 0-1.969-0.686-3.787-1.935-5.118z"></path>
</symbol>
<symbol id="icon-burger-opt" viewBox="0 0 29 32">
<path d="M28.192 24.45c-0.004-0.494-0.403-0.893-0.897-0.897h-25.333c-0.494 0.004-0.893 0.403-0.897 0.897v1.796c0 0.491 0.406 0.897 0.897 0.897h25.333c0.491 0 0.897-0.405 0.897-0.897v-1.795zM28.192 14.807c-0.003-0.494-0.403-0.895-0.897-0.898h-25.333c-0.494 0.004-0.894 0.404-0.897 0.898v1.795c0 0.491 0.406 0.897 0.897 0.897h25.333c0.491 0 0.897-0.406 0.897-0.897v-1.795zM28.192 5.165c-0.003-0.494-0.403-0.895-0.897-0.898h-25.333c-0.494 0.004-0.892 0.403-0.896 0.897v1.796c0 0.491 0.406 0.898 0.897 0.898h25.332c0.491 0 0.897-0.407 0.897-0.898v-1.795z"></path>
</symbol>
<symbol id="icon-bunner-menu-opt" viewBox="0 0 40 32">
<path d="M40 27.324c0-0.724-0.6-1.324-1.324-1.324h-37.352c-0.724 0-1.324 0.6-1.324 1.324v2.646c0 0.724 0.6 1.324 1.324 1.324h37.352c0.724 0 1.324-0.6 1.324-1.324v-2.646zM40 14.676c0-0.724-0.6-1.322-1.324-1.322h-37.352c-0.724 0-1.324 0.6-1.324 1.322v2.648c0 0.724 0.6 1.324 1.324 1.324h37.352c0.724 0 1.324-0.6 1.324-1.324v-2.648zM40 2.030c0-0.724-0.6-1.324-1.324-1.324h-37.352c-0.724 0-1.324 0.6-1.324 1.324v2.646c0 0.724 0.6 1.324 1.324 1.324h37.352c0.724 0 1.324-0.6 1.324-1.324v-2.646z"></path>
</symbol>
   </defs></svg>