<svg width="15" height="12" fill="none" xmlns="http://www.w3.org/2000/svg"><path d="M14.357 1.456c-.512.22-1.068.38-1.642.441a2.843 2.843 0 0 0 1.253-1.57 5.612 5.612 0 0 1-1.81.688 2.844 2.844 0 0 0-2.082-.9 2.85 2.85 0 0 0-2.851 2.85c0 .221.026.442.07.654A8.104 8.104 0 0 1 1.416.635a2.83 2.83 0 0 0-.388 1.439 2.85 2.85 0 0 0 1.271 2.374 2.872 2.872 0 0 1-1.289-.362v.036c0 1.386.98 2.533 2.286 2.798a3.014 3.014 0 0 1-.75.097c-.185 0-.362-.018-.538-.044A2.856 2.856 0 0 0 4.673 8.95a5.71 5.71 0 0 1-3.54 1.218 5.89 5.89 0 0 1-.688-.035 8.057 8.057 0 0 0 4.379 1.28c5.243 0 8.112-4.343 8.112-8.112 0-.124 0-.247-.01-.37a6.128 6.128 0 0 0 1.43-1.475Z" fill="#fff"/></svg>